<svg id="Layer_1" data-name="Layer 1" xmlns="http://www.w3.org/2000/svg" viewBox="0 0 63.99 64">
    <defs>
        <style>.cls-1{fill:#a51e2b}.cls-2{fill:#e53839}.cls-7{fill:#fff;opacity:.3}</style>
    </defs>
    <path class="cls-1"
        d="M13.28 0h37.44A13.27 13.27 0 0164 13.27v37.45A13.28 13.28 0 0150.72 64H13.28A13.28 13.28 0 010 50.72V13.28A13.28 13.28 0 0113.28 0z" />
    <path class="cls-2"
        d="M62 17.3c.16 12.06.09 22.39 0 30.78 0 2.52-.12 6.53-2.88 9.73A13.46 13.46 0 0150.88 62l-37.44.29a12.87 12.87 0 01-11.29-11V34l16.31.09a26.38 26.38 0 0012.06-5.59c3.23-2.74 4.47-5.33 8.68-8a25.79 25.79 0 017.53-3.26zM2.15 27.62h15.38a22 22 0 005.91-2c5.84-3 7.11-7 12.19-10.61a24.72 24.72 0 019.94-4.05h15.64a10.48 10.48 0 00-2.61-5.34 11 11 0 00-8-3.28h-38A13.21 13.21 0 004.85 7a13 13 0 00-2.7 6.66z"
        transform="translate(-.01)" />
    <path
        d="M0 30c2.15.06 5.19.14 8.84.22 4.8.1 6.74.1 9.41-.41a19.57 19.57 0 005-1.52c1.58-.74 2.72-1.57 5.63-4.14 4.7-4.16 4.41-4.35 6.9-6.28a23.86 23.86 0 016.81-4 20.65 20.65 0 014.14-1h17.15c0 .24 0 .49.07.75s0 .74 0 1.09H46.73A20.54 20.54 0 0040.32 17a29.63 29.63 0 00-5.72 4.43c-2.6 2.37-2.6 2.69-4.83 4.65-2.43 2.09-3.7 3.19-5.73 4.14a22.41 22.41 0 01-8 1.81 61.52 61.52 0 01-7.04.12H.09z"
        transform="translate(-.01)" fill="#18272e" />
    <circle cx="26.97" cy="8.71" r="1.64" stroke="#a51e2c" stroke-miterlimit="10" stroke-width=".25"
        fill="#f26b54" />
    <circle cx="14.96" cy="15.01" r="8.49" fill="#cfdfe5" stroke="#a51e2c" stroke-miterlimit="10"
        stroke-width=".25" />
    <circle cx="14.96" cy="15.01" r="6.69" fill="#3d99d4" />
    <path class="cls-7"
        d="M19.34 13.93c0 2.42-2 0-4.37 0s-4.37 2.42-4.37 0a4.37 4.37 0 018.74 0zM27.58 8.16c0 .36-.29 0-.64 0s-.65.36-.65 0a.65.65 0 111.29 0z"
        transform="translate(-.01)" />
    <circle cx="32.17" cy="8.71" r="1.64" fill="#ffd33b" stroke="#a51e2c" stroke-miterlimit="10"
        stroke-width=".25" />
    <circle cx="37.56" cy="8.71" r="1.64" fill="#8ec852" stroke="#a51e2c" stroke-miterlimit="10"
        stroke-width=".25" />
    <path fill="#fdbe11" stroke="#a51e2c" stroke-miterlimit="10" stroke-width=".25"
        d="M6.6 41.32v9.55l4.86-4.77-4.86-4.78z" />
    <rect class="cls-1" x="23.58" y="55.79" width="16.97" height="1.93" rx=".54" />
    <path class="cls-7"
        d="M32.82 8.16c0 .36-.29 0-.64 0s-.65.36-.65 0a.65.65 0 111.29 0zM38.21 8.16c0 .36-.29 0-.64 0s-.65.36-.65 0a.65.65 0 111.29 0z"
        transform="translate(-.01)" />
</svg>